<?xml version="1.0" encoding="UTF-8"?>
<svg width="710px" height="265px" viewBox="0 0 710 265" version="1.1" xmlns="http://www.w3.org/2000/svg" xmlns:xlink="http://www.w3.org/1999/xlink">
    <!-- Generator: Sketch 45.1 (43504) - http://www.bohemiancoding.com/sketch -->
    <title>Group 2</title>
    <desc>Created with Sketch.</desc>
    <defs></defs>
    <g id="Page-1" stroke="none" stroke-width="1" fill="none" fill-rule="evenodd">
        <g id="inuits">
            <g id="Group">
                <g id="Group-2">
                    <path d="M40.4,190.9 L40.4,99.5 L8.4,114 L0.6,96.5 L60.1,69.2 L61,69.2 L61,191 L40.4,191 L40.4,190.9 Z M49.8,52.9 C34.9,52.9 23.4,41.9 23.4,26.9 C23.4,12 34.9,0.9 49.8,0.9 C64.7,0.9 76.2,11.9 76.2,26.9 C76.2,41.8 64.7,52.9 49.8,52.9 Z M49.8,15.9 C43.4,15.9 38.8,20.5 38.8,26.9 C38.8,33.3 43.4,37.9 49.8,37.9 C56.2,37.9 60.8,33.3 60.8,26.9 C60.8,20.5 56.2,15.9 49.8,15.9 Z" id="Shape" fill="#11A7C9" fill-rule="nonzero"></path>
                    <path d="M120.3,110.3 C118.9,115.1 118.5,120.9 118.5,130.1 L118.5,191 L97.8,191 L97.8,125.8 C97.8,118 98.3,112.7 99.2,108.3 C104.3,83.9 123.3,67.9 154.8,67.9 C186.3,67.9 205.3,84 210.4,108.3 C211.3,112.7 211.8,117.9 211.8,125.8 L211.8,191 L191.1,191 L191.1,130.1 C191.1,120.9 190.6,115.2 189.3,110.3 C185.2,96.3 174.6,87.8 154.8,87.8 C135,87.8 124.4,96.3 120.3,110.3 Z" id="Shape" fill="#11A7C9" fill-rule="nonzero"></path>
                    <path d="M337,149.8 C338.4,145 338.8,139.2 338.8,130 L338.8,69.1 L359.5,69.1 L359.5,134.3 C359.5,142.1 359,147.4 358.1,151.8 C353,176.2 334,192.2 302.5,192.2 C271,192.2 252,176.2 247,151.9 C246.1,147.5 245.6,142.3 245.6,134.4 L245.6,69.2 L266.3,69.2 L266.3,130.1 C266.3,139.3 266.8,145 268.1,149.9 C272.2,163.9 282.8,172.4 302.6,172.4 C322.3,172.3 332.9,163.8 337,149.8 Z" id="Shape" fill="#11A7C9" fill-rule="nonzero"></path>
                    <path d="M425.2,190.9 L425.2,99.5 L393.3,114 L385.5,96.5 L445,69.2 L445.9,69.2 L445.9,191 L425.2,191 L425.2,190.9 Z M434.6,52.9 C419.7,52.9 408.2,41.9 408.2,26.9 C408.2,12 419.7,0.9 434.6,0.9 C449.5,0.9 461,11.9 461,26.9 C461,41.8 449.5,52.9 434.6,52.9 Z M434.6,15.9 C428.2,15.9 423.6,20.5 423.6,26.9 C423.6,33.3 428.2,37.9 434.6,37.9 C441,37.9 445.6,33.3 445.6,26.9 C445.6,20.5 441,15.9 434.6,15.9 Z" id="Shape" fill="#11A7C9" fill-rule="nonzero"></path>
                    <path d="M510.8,88.5 L470.1,88.5 L470.1,69.2 L579,69.2 L579,88.5 L531.4,88.5 L531.4,139 C531.4,147 532.1,152.8 533.9,157.6 C537.8,167.5 546.8,172.3 561.5,172.3 C566.8,172.3 573.4,171.6 579.9,170 L584.5,189.3 C576.7,191.4 568.4,192.3 559.7,192.3 C535.3,192.3 520.2,181.7 514,165 C511.9,159.3 510.8,152.8 510.8,143.9 L510.8,88.5 Z" id="Shape" fill="#11A7C9" fill-rule="nonzero"></path>
                    <path d="M661.9,171.6 C672.7,171.6 678.7,170 682.3,167.5 C686.2,164.7 687.8,160.6 687.8,155.3 C687.8,149.3 686,144.7 680.7,142 C677,140.2 671.5,139 661.2,139 L649.7,139 C636.1,139 628.3,137.4 622.4,134.4 C611.1,128.7 605.2,118.1 605.2,105 C605.2,91.2 611.6,80.2 622.9,74.2 C629.1,71 636.7,69.1 649.1,69.1 L704.2,69.1 L704.2,88.4 L647.9,88.4 C640.3,88.4 635.5,89.5 632,92.1 C628.3,94.6 626.5,98.8 626.5,104 C626.5,110 629,114.3 633.6,116.9 C636.8,118.7 641.2,119.7 649.7,119.7 L662.1,119.7 C676.8,119.7 684.6,121.3 690.8,124.3 C703.2,130.3 709.2,141.8 709.2,155.3 C709.2,165.6 705.3,174.6 697.7,181 C690.3,187.2 679.6,190.9 662.1,190.9 L606.7,190.9 L606.7,171.6 L661.9,171.6 Z" id="Shape" fill="#11A7C9" fill-rule="nonzero"></path>
                    <path d="M30.6094289,249.957816 C30.6094289,254.058097 29.312811,257.446898 26.7195363,260.12432 C24.1262616,262.801743 20.7565851,264.140434 16.6104055,264.140434 C12.494825,264.140434 9.15192223,262.801743 6.58159688,260.12432 C4.01127152,257.446898 2.72612813,254.058097 2.72612813,249.957816 L2.72612813,243.945121 C2.72612813,239.86014 4.00744669,236.475164 6.57012227,233.790092 C9.13279784,231.10502 12.4718758,229.762504 16.5874563,229.762504 C20.7336358,229.762504 24.1071373,231.10502 26.7080617,233.790092 C29.3089862,236.475164 30.6094289,239.86014 30.6094289,243.945121 L30.6094289,249.957816 Z M23.908257,243.899223 C23.908257,241.298298 23.2580357,239.164042 21.9575734,237.496391 C20.6571112,235.828739 18.86709,234.994926 16.5874563,234.994926 C14.3078225,234.994926 12.5407503,235.824914 11.2861867,237.484916 C10.0316232,239.144918 9.40435078,241.282999 9.40435078,243.899223 L9.40435078,249.957816 C9.40435078,252.60464 10.0392728,254.761845 11.3091359,256.429496 C12.5789991,258.097148 14.3460712,258.930961 16.6104055,258.930961 C18.9053388,258.930961 20.69536,258.097148 21.9805227,256.429496 C23.2656853,254.761845 23.908257,252.60464 23.908257,249.957816 L23.908257,243.899223 Z M46.5430227,251.541313 L46.5430227,263.6585 L39.8418508,263.6585 L39.8418508,230.244438 L53.1523977,230.244438 C56.9925861,230.244438 60.014203,231.223594 62.2173391,233.181938 C64.4204751,235.140281 65.5220266,237.718217 65.5220266,240.915824 C65.5220266,244.113431 64.4204751,246.683718 62.2173391,248.626762 C60.014203,250.569805 56.9925861,251.541313 53.1523977,251.541313 L46.5430227,251.541313 Z M46.5430227,246.377738 L53.1523977,246.377738 C55.0189434,246.377738 56.4341311,245.869036 57.3980031,244.851615 C58.3618751,243.834195 58.8438039,242.537577 58.8438039,240.961723 C58.8438039,239.355269 58.3657,238.028053 57.4094777,236.980033 C56.4532555,235.932014 55.034243,235.408012 53.1523977,235.408012 L46.5430227,235.408012 L46.5430227,246.377738 Z M94.9956594,248.971 L81.1572805,248.971 L81.1572805,258.517875 L97.3364797,258.517875 L97.3364797,263.6585 L74.4561086,263.6585 L74.4561086,230.244438 L97.2905813,230.244438 L97.2905813,235.408012 L81.1572805,235.408012 L81.1572805,243.807426 L94.9956594,243.807426 L94.9956594,248.971 Z M132.45562,263.6585 L125.777398,263.6585 L112.283257,240.824027 L112.145562,240.846977 L112.145562,263.6585 L105.44439,263.6585 L105.44439,230.244438 L112.145562,230.244438 L125.639702,253.055961 L125.777398,253.033012 L125.777398,230.244438 L132.45562,230.244438 L132.45562,263.6585 Z M176.462945,254.937797 C176.462945,253.652634 176.00779,252.61993 175.097466,251.839652 C174.187142,251.059375 172.592188,250.325007 170.312554,249.636527 C166.334669,248.489061 163.328352,247.127421 161.293511,245.551566 C159.25867,243.975712 158.241265,241.818507 158.241265,239.079887 C158.241265,236.341266 159.407838,234.10374 161.741021,232.36724 C164.074203,230.630741 167.053747,229.762504 170.679741,229.762504 C174.351635,229.762504 177.342653,230.737836 179.652886,232.688529 C181.963119,234.639223 183.07997,237.045042 183.003472,239.906059 L182.957573,240.043754 L176.462945,240.043754 C176.462945,238.498499 175.946592,237.247779 174.913872,236.291557 C173.881152,235.335334 172.431541,234.85723 170.564995,234.85723 C168.774947,234.85723 167.390358,235.255013 166.411187,236.05059 C165.432015,236.846167 164.942437,237.863572 164.942437,239.102836 C164.942437,240.235003 165.466439,241.164437 166.514458,241.891166 C167.562478,242.617895 169.371623,243.386686 171.941948,244.197563 C175.629141,245.222633 178.421268,246.576623 180.318413,248.259574 C182.215558,249.942525 183.164116,252.153278 183.164116,254.891898 C183.164116,257.752915 182.035791,260.009566 179.779107,261.661918 C177.522422,263.31427 174.542878,264.140434 170.840386,264.140434 C167.199092,264.140434 164.024482,263.20335 161.31646,261.329154 C158.608439,259.454959 157.292697,256.827299 157.369195,253.446098 L157.415093,253.308402 L163.932671,253.308402 C163.932671,255.297345 164.540819,256.754605 165.757134,257.680229 C166.973449,258.605852 168.667849,259.068656 170.840386,259.068656 C172.661033,259.068656 174.053272,258.693823 175.017144,257.944145 C175.981016,257.194466 176.462945,256.19236 176.462945,254.937797 Z M219.109429,249.957816 C219.109429,254.058097 217.812811,257.446898 215.219536,260.12432 C212.626262,262.801743 209.256585,264.140434 205.110405,264.140434 C200.994825,264.140434 197.651922,262.801743 195.081597,260.12432 C192.511272,257.446898 191.226128,254.058097 191.226128,249.957816 L191.226128,243.945121 C191.226128,239.86014 192.507447,236.475164 195.070122,233.790092 C197.632798,231.10502 200.971876,229.762504 205.087456,229.762504 C209.233636,229.762504 212.607137,231.10502 215.208062,233.790092 C217.808986,236.475164 219.109429,239.86014 219.109429,243.945121 L219.109429,249.957816 Z M212.408257,243.899223 C212.408257,241.298298 211.758036,239.164042 210.457573,237.496391 C209.157111,235.828739 207.36709,234.994926 205.087456,234.994926 C202.807822,234.994926 201.04075,235.824914 199.786187,237.484916 C198.531623,239.144918 197.904351,241.282999 197.904351,243.899223 L197.904351,249.957816 C197.904351,252.60464 198.539273,254.761845 199.809136,256.429496 C201.078999,258.097148 202.846071,258.930961 205.110405,258.930961 C207.405339,258.930961 209.19536,258.097148 210.480523,256.429496 C211.765685,254.761845 212.408257,252.60464 212.408257,249.957816 L212.408257,243.899223 Z M254.779351,230.244438 L254.779351,252.413383 C254.779351,256.161774 253.540105,259.053347 251.061577,261.088188 C248.583049,263.123028 245.339592,264.140434 241.331109,264.140434 C237.337925,264.140434 234.113592,263.123028 231.658013,261.088188 C229.202434,259.053347 227.974663,256.161774 227.974663,252.413383 L227.974663,230.244438 L234.698784,230.244438 L234.698784,252.413383 C234.698784,254.616519 235.287808,256.265021 236.465874,257.358939 C237.64394,258.452858 239.265669,258.999809 241.331109,258.999809 C243.427148,258.999809 245.071825,258.456683 246.265191,257.370414 C247.458556,256.284146 248.05523,254.631818 248.05523,252.413383 L248.05523,230.244438 L254.779351,230.244438 Z M271.332573,250.302055 L271.332573,263.6585 L264.631402,263.6585 L264.631402,230.244438 L277.230523,230.244438 C281.040112,230.244438 284.019656,231.112674 286.169243,232.849174 C288.318831,234.585673 289.393609,237.006792 289.393609,240.112602 C289.393609,241.841451 288.942278,243.325486 288.039605,244.56475 C287.136931,245.804014 285.813539,246.80612 284.06939,247.571098 C286.043033,248.152481 287.462045,249.123988 288.32647,250.485648 C289.190895,251.847309 289.623101,253.530235 289.623101,255.534477 L289.623101,257.990043 C289.623101,258.923316 289.74932,259.898648 290.001763,260.916068 C290.254206,261.933489 290.686412,262.686981 291.298394,263.176566 L291.298394,263.6585 L284.390679,263.6585 C283.778697,263.168914 283.380914,262.3504 283.19732,261.202934 C283.013725,260.055467 282.921929,258.969215 282.921929,257.944145 L282.921929,255.580375 C282.921929,253.912723 282.466774,252.616106 281.55645,251.690482 C280.646127,250.764859 279.364808,250.302055 277.712456,250.302055 L271.332573,250.302055 Z M271.332573,245.13848 L277.115777,245.13848 C278.997622,245.13848 280.401335,244.740698 281.326958,243.945121 C282.252581,243.149544 282.715386,241.971496 282.715386,240.410941 C282.715386,238.880986 282.252581,237.664689 281.326958,236.762016 C280.401335,235.859342 279.03587,235.408012 277.230523,235.408012 L271.332573,235.408012 L271.332573,245.13848 Z M324.925835,252.298637 L324.971734,252.436332 C325.032932,256.031728 323.935205,258.881227 321.678521,260.984916 C319.421836,263.088605 316.289299,264.140434 312.280816,264.140434 C308.257032,264.140434 304.990626,262.847641 302.481499,260.262016 C299.972372,257.676391 298.717827,254.348787 298.717827,250.279105 L298.717827,243.646781 C298.717827,239.592399 299.941773,236.264796 302.389702,233.663871 C304.837631,231.062947 308.019891,229.762504 311.936577,229.762504 C316.067457,229.762504 319.295615,230.821982 321.621148,232.940971 C323.94668,235.059959 325.07883,237.947707 325.017632,241.604301 L324.971734,241.741996 L318.454155,241.741996 C318.454155,239.53886 317.926329,237.852109 316.870659,236.681693 C315.81499,235.511277 314.170312,234.926078 311.936577,234.926078 C309.932336,234.926078 308.341206,235.740767 307.16314,237.37017 C305.985074,238.999573 305.39605,241.076456 305.39605,243.600883 L305.39605,250.279105 C305.39605,252.834131 306.015673,254.926314 307.254937,256.555717 C308.494201,258.185119 310.169477,258.999809 312.280816,258.999809 C314.376855,258.999809 315.925912,258.437558 316.928032,257.313041 C317.930153,256.188524 318.431206,254.517072 318.431206,252.298637 L324.925835,252.298637 Z M354.284722,248.971 L340.446343,248.971 L340.446343,258.517875 L356.625542,258.517875 L356.625542,263.6585 L333.745171,263.6585 L333.745171,230.244438 L356.579644,230.244438 L356.579644,235.408012 L340.446343,235.408012 L340.446343,243.807426 L354.284722,243.807426 L354.284722,248.971 Z M387.551812,263.6585 L380.85064,263.6585 L380.85064,230.244438 L387.551812,230.244438 L387.551812,263.6585 Z M425.241265,263.6585 L418.563042,263.6585 L405.068902,240.824027 L404.931206,240.846977 L404.931206,263.6585 L398.230034,263.6585 L398.230034,230.244438 L404.931206,230.244438 L418.425347,253.055961 L418.563042,253.033012 L418.563042,230.244438 L425.241265,230.244438 L425.241265,263.6585 Z M462.517632,263.6585 L455.839409,263.6585 L442.345269,240.824027 L442.207573,240.846977 L442.207573,263.6585 L435.506402,263.6585 L435.506402,230.244438 L442.207573,230.244438 L455.701714,253.055961 L455.839409,253.033012 L455.839409,230.244438 L462.517632,230.244438 L462.517632,263.6585 Z M499.656304,249.957816 C499.656304,254.058097 498.359686,257.446898 495.766411,260.12432 C493.173137,262.801743 489.80346,264.140434 485.65728,264.140434 C481.5417,264.140434 478.198797,262.801743 475.628472,260.12432 C473.058147,257.446898 471.773003,254.058097 471.773003,249.957816 L471.773003,243.945121 C471.773003,239.86014 473.054322,236.475164 475.616997,233.790092 C478.179673,231.10502 481.518751,229.762504 485.634331,229.762504 C489.780511,229.762504 493.154012,231.10502 495.754937,233.790092 C498.355861,236.475164 499.656304,239.86014 499.656304,243.945121 L499.656304,249.957816 Z M492.955132,243.899223 C492.955132,241.298298 492.304911,239.164042 491.004448,237.496391 C489.703986,235.828739 487.913965,234.994926 485.634331,234.994926 C483.354697,234.994926 481.587625,235.824914 480.333062,237.484916 C479.078498,239.144918 478.451226,241.282999 478.451226,243.899223 L478.451226,249.957816 C478.451226,252.60464 479.086148,254.761845 480.356011,256.429496 C481.625874,258.097148 483.392946,258.930961 485.65728,258.930961 C487.952214,258.930961 489.742235,258.097148 491.027398,256.429496 C492.31256,254.761845 492.955132,252.60464 492.955132,249.957816 L492.955132,243.899223 Z M519.651909,254.777152 L520.064995,256.590141 L520.202691,256.590141 L520.592827,254.823051 L527.86773,230.244438 L534.936089,230.244438 L523.576226,263.6585 L516.69146,263.6585 L505.354546,230.244438 L512.422905,230.244438 L519.651909,254.777152 Z M556.905327,256.452445 L545.178277,256.452445 L542.906304,263.6585 L536.136284,263.6585 L547.633843,230.244438 L554.495659,230.244438 L565.94732,263.6585 L559.1773,263.6585 L556.905327,256.452445 Z M546.83062,251.197074 L555.252984,251.197074 L551.122124,238.070121 L550.984429,238.070121 L546.83062,251.197074 Z M596.155327,235.408012 L586.700249,235.408012 L586.700249,263.6585 L579.999077,263.6585 L579.999077,235.408012 L570.589898,235.408012 L570.589898,230.244438 L596.155327,230.244438 L596.155327,235.408012 Z M630.012261,249.957816 C630.012261,254.058097 628.715643,257.446898 626.122368,260.12432 C623.529094,262.801743 620.159417,264.140434 616.013238,264.140434 C611.897657,264.140434 608.554754,262.801743 605.984429,260.12432 C603.414104,257.446898 602.12896,254.058097 602.12896,249.957816 L602.12896,243.945121 C602.12896,239.86014 603.410279,236.475164 605.972954,233.790092 C608.53563,231.10502 611.874708,229.762504 615.990288,229.762504 C620.136468,229.762504 623.509969,231.10502 626.110894,233.790092 C628.711818,236.475164 630.012261,239.86014 630.012261,243.945121 L630.012261,249.957816 Z M623.311089,243.899223 C623.311089,241.298298 622.660868,239.164042 621.360405,237.496391 C620.059943,235.828739 618.269922,234.994926 615.990288,234.994926 C613.710654,234.994926 611.943582,235.824914 610.689019,237.484916 C609.434455,239.144918 608.807183,241.282999 608.807183,243.899223 L608.807183,249.957816 C608.807183,252.60464 609.442105,254.761845 610.711968,256.429496 C611.981831,258.097148 613.748903,258.930961 616.013238,258.930961 C618.308171,258.930961 620.098192,258.097148 621.383355,256.429496 C622.668517,254.761845 623.311089,252.60464 623.311089,249.957816 L623.311089,243.899223 Z M645.945855,250.302055 L645.945855,263.6585 L639.244683,263.6585 L639.244683,230.244438 L651.843804,230.244438 C655.653393,230.244438 658.632937,231.112674 660.782525,232.849174 C662.932112,234.585673 664.00689,237.006792 664.00689,240.112602 C664.00689,241.841451 663.55556,243.325486 662.652886,244.56475 C661.750212,245.804014 660.42682,246.80612 658.682671,247.571098 C660.656314,248.152481 662.075326,249.123988 662.939751,250.485648 C663.804176,251.847309 664.236382,253.530235 664.236382,255.534477 L664.236382,257.990043 C664.236382,258.923316 664.362601,259.898648 664.615044,260.916068 C664.867487,261.933489 665.299693,262.686981 665.911675,263.176566 L665.911675,263.6585 L659.00396,263.6585 C658.391978,263.168914 657.994195,262.3504 657.810601,261.202934 C657.627006,260.055467 657.53521,258.969215 657.53521,257.944145 L657.53521,255.580375 C657.53521,253.912723 657.080055,252.616106 656.169732,251.690482 C655.259408,250.764859 653.97809,250.302055 652.325738,250.302055 L645.945855,250.302055 Z M645.945855,245.13848 L651.729058,245.13848 C653.610903,245.13848 655.014616,244.740698 655.940239,243.945121 C656.865863,243.149544 657.328667,241.971496 657.328667,240.410941 C657.328667,238.880986 656.865863,237.664689 655.940239,236.762016 C655.014616,235.859342 653.649151,235.408012 651.843804,235.408012 L645.945855,235.408012 L645.945855,245.13848 Z M692.356011,254.937797 C692.356011,253.652634 691.900856,252.61993 690.990532,251.839652 C690.080209,251.059375 688.485254,250.325007 686.20562,249.636527 C682.227736,248.489061 679.221418,247.127421 677.186577,245.551566 C675.151736,243.975712 674.134331,241.818507 674.134331,239.079887 C674.134331,236.341266 675.300905,234.10374 677.634087,232.36724 C679.967269,230.630741 682.946813,229.762504 686.572808,229.762504 C690.244701,229.762504 693.235719,230.737836 695.545952,232.688529 C697.856185,234.639223 698.973036,237.045042 698.896538,239.906059 L698.85064,240.043754 L692.356011,240.043754 C692.356011,238.498499 691.839659,237.247779 690.806939,236.291557 C689.774219,235.335334 688.324608,234.85723 686.458062,234.85723 C684.668014,234.85723 683.283425,235.255013 682.304253,236.05059 C681.325082,236.846167 680.835503,237.863572 680.835503,239.102836 C680.835503,240.235003 681.359505,241.164437 682.407525,241.891166 C683.455544,242.617895 685.264689,243.386686 687.835015,244.197563 C691.522208,245.222633 694.314335,246.576623 696.21148,248.259574 C698.108625,249.942525 699.057183,252.153278 699.057183,254.891898 C699.057183,257.752915 697.928858,260.009566 695.672173,261.661918 C693.415489,263.31427 690.435945,264.140434 686.733452,264.140434 C683.092158,264.140434 679.917548,263.20335 677.209527,261.329154 C674.501505,259.454959 673.185763,256.827299 673.262261,253.446098 L673.308159,253.308402 L679.825738,253.308402 C679.825738,255.297345 680.433886,256.754605 681.6502,257.680229 C682.866515,258.605852 684.560915,259.068656 686.733452,259.068656 C688.554099,259.068656 689.946338,258.693823 690.91021,257.944145 C691.874082,257.194466 692.356011,256.19236 692.356011,254.937797 Z" id="OPEN-SOURCE-INNOVATORS" fill="#41A7C9"></path>
                </g>
            </g>
        </g>
    </g>
</svg>